<?xml version="1.0" encoding="UTF-8"?>
<svg id="Camada_1" xmlns="http://www.w3.org/2000/svg" version="1.1" viewBox="0 0 213.3 92.2">
  <!-- Generator: Adobe Illustrator 29.0.1, SVG Export Plug-In . SVG Version: 2.1.0 Build 192)  -->
  <defs>
    <style>
      .st0 {
        fill: #e8397b;
      }

      .st1 {
        fill: #fff;
      }

      .st2 {
        fill: #25528d;
      }

      .st3 {
        fill: #f2ae2c;
      }
    </style>
  </defs>
  <g id="Camada_11" data-name="Camada_1">
    <g>
      <path class="st2" d="M124.8,86.8c-3.6,0-4.4-3.3-6.3-9.4-1.9-6.1.4-9.4,3.9-9.4s2,.4,2.5.9c-.2.7-.4,1.4-.5,2.2-.4-.4-1.1-.8-1.7-.8-1.9,0-2.8,2.2-1.4,7,1.2,4,2.1,7.1,3.3,7.1s.2,0,.3,0c-.2-2-.7-3.9-1.2-5.9h-1.1c-.2-.8-.4-1.6-.6-2.3h3.8c.8,3.2,1.9,6.3,1.9,9.5-.6.7-1.7,1.1-2.9,1.1h0Z"/>
      <path class="st2" d="M135.3,86.8c-.5-2.7-1.9-5.4-3.3-8.2h-.4c.7,2.7,1.4,5.4,1.2,8.2h-2.8c.5-6.2-3.8-12.4-2.4-18.5h3.7c2.6,0,3.3,2.1,3.9,5.1.4,2.2.3,3.9-.6,4.7,1.6,2.9,3.2,5.8,3.7,8.7h-2.9ZM130.6,70.5h-.4c0,1.9.3,3.8.8,5.7h.4c1,0,1.2-1.1.9-2.8-.3-1.8-.7-2.9-1.8-2.9Z"/>
      <path class="st2" d="M139.7,68.2h2.6c-.4,6.2,4.9,12.4,5.4,18.5h-2.8c0-1.6-.4-3.1-1-4.7h-1.9c.1,1.6,0,3.1-.3,4.7h-2.6c1.5-6.2-1.8-12.4.6-18.5h0ZM141.9,79.9h1.3c-.3-.7-.5-1.4-.8-2-.5-1.2-1.1-2.9-1.4-4.4h0c.2,1.5.5,3.2.7,4.4,0,.7.2,1.4.3,2h0Z"/>
      <path class="st2" d="M153.7,86.8h-2.6c-.5-6.2-5.7-12.4-5.4-18.5h2.8c-.3,3,.8,5.9,1.9,8.9.5,1.2,1.1,2.9,1.5,4.4h0c-.3-1.5-.6-3.2-.8-4.4-.4-3-.7-5.9.4-8.9h2.6c-2.3,6.2,1,12.4-.5,18.5h0Z"/>
      <path class="st2" d="M157.5,68.2h2.6c-.4,6.2,4.9,12.4,5.4,18.5h-2.8c0-1.6-.4-3.1-1-4.7h-1.9c.1,1.6,0,3.1-.3,4.7h-2.6c1.5-6.2-1.8-12.4.6-18.5h0ZM159.7,79.9h1.3c-.3-.7-.5-1.4-.8-2-.5-1.2-1.1-2.9-1.4-4.4h0c.2,1.5.5,3.2.7,4.4,0,.7.2,1.4.3,2h0Z"/>
      <path class="st2" d="M169,91.1c-.4,0-.6,0-.8-.2.3-.4.5-.8.8-1.2,0,0,.2.1.4.1.4,0,.8-.3,1-.7,0-.3-.1-.6-.5-.6s-.4,0-.7.2c0-.3-.2-.7-.3-1,.5-.3.9-.7,1.4-1-2.2-.6-3.2-3.7-4.9-9.2-1.9-6.2.5-9.4,3.5-9.4s1.5.2,1.8.5c-.2.7-.4,1.4-.5,2.2-.2-.2-.5-.4-.9-.4-1.5,0-2.3,2.7-1,7.1,1.3,4.4,2.2,7,3.8,7s.6,0,.8-.3c0,.8,0,1.5-.1,2.3-.5.2-.9.3-1.5.3h0c-.2.1-.4.3-.7.4,1.1,0,1.9.7,1.6,1.9-.4,1.3-1.8,2-3,2h0Z"/>
      <path class="st2" d="M178.1,86.8c-3.1,0-3.6-3.5-5.5-9.4-1.9-5.9-.1-9.4,3.1-9.4s3,3.5,4.9,9.4c1.9,5.9.9,9.4-2.5,9.4ZM175.4,67c-.3,0-.6.2-.8.6-.4-.1-.7-.3-1.1-.4.2-.4,1.5-1.8,2.2-1.8s.8.6,1.3.6.6-.2.9-.6c.3.1.7.3,1,.4-.4.4-1.5,1.8-2.1,1.8-.7,0-.9-.6-1.4-.6h0ZM175.4,70.5c-.7,0-1.3,2.5,0,7,1.4,4.6,1.9,7,2.7,7s1-2.5-.3-7c-1.3-4.6-1.6-7-2.3-7Z"/>
      <path class="st2" d="M181.8,68.2h6.2c-.2.8-.3,1.6-.3,2.3h-3.3c0,1.9.3,3.8.8,5.7h3c.2.8.4,1.6.6,2.3h-3c.5,1.9,1,3.9,1.2,5.8h3.6c0,.8,0,1.6,0,2.3h-6.4c.5-6.2-3.8-12.4-2.4-18.5h0Z"/>
      <path class="st2" d="M194.5,86.8c-1,0-1.8-.3-2.4-.6,0-.8-.1-1.7-.3-2.5.6.4,1.4.8,2.2.8s1.6-.6,1.4-1.7c-.4-3-5.6-6.9-6-10.8-.2-2.4,1.8-3.9,4-3.9s1.6.2,1.9.5c-.3.7-.5,1.4-.6,2.1-.3-.2-.7-.3-1.1-.3-.8,0-1.4.6-1.3,1.7.1,2.7,5.3,7,6,10.8.4,2.7-1.4,4-3.7,4h0Z"/>
    </g>
  </g>
  <g id="Camada_2">
    <g>
      <path class="st1" d="M56.9,50.9c.9-.3.8-.4.5-1.2-.6-1.4-2.2-3.8-2.3-5.2,0-1,.8-1.7.2-2.8-1.7-3.2-7.1-2.3-5.4,1,.8,1.5,2.5,1.9,3.4,3.2,1.2,1.7,1.3,3.9,1.8,5.9l.4-2.6,1.3,1.8h0Z"/>
      <g>
        <path class="st2" d="M111.2,41.3l-61.6-20.2L6,45.3l.9,6.7,74.2,32,30.2-35.5v-7.1c0,0,0,0,0,0ZM79.8,76.5L7.5,46.3l42.5-24.1,60.8,20.1-31,34.2h0Z"/>
        <polygon class="st2" points="79.1 72.5 108.2 42.3 50.1 23 12.6 45.4 79.1 72.5"/>
      </g>
      <polygon class="st3" points="20.9 46.6 50.9 27.8 103.8 45.2 79.7 70.9 20.9 46.6"/>
      <path class="st0" d="M58.6,34.2c-3.5-1.2-7.1-3.1-9.4-2.7s-2,1.3-2,1.3c0,0,4.3,1,3.5,1.8s-2.9,1.9-4.4,1.3-2.4,2,.5,2.4,3.1,1.5,1.3,1.6-6-.7-7.6-1.6-4.7.5-2.3,1.2,5.5,1.3,3.6,2-5.8-1.4-5.9,0,5.1,2,3,3.1-6.4-3.5-7.9.2c4.2,1.8,44.9,18.9,44.9,18.9,0,0,6.2,0,3.4-1.8s-4.1-4-1.4-3.4,5.4.7,2.5-1.4-1.8-3.8,3-1.9,7.4,1.5,5.5.2-3.6-3.3-.3-2.6,4.5-.7,2.3-1.6-2.2-2.8.3-2,6.2,2.3,5.9,0c-10.8-3.8-38.6-15.1-38.6-15.1h0Z"/>
      <path class="st2" d="M68.4,26.3c-1.8,1.3-7.1,6.7-15.3,11.4-4.6,2.5-6.6,3.9-3.5,6.9s5.1,8,5,9.4c.2.3.6.6,1.5.2,1,.6,3.1,1.1,3.1,1.1,2.7-3,15.6-13.8,15.6-13.8l-1.5-2s-.8-.4,0-1.1-.5-2.9-1-3.9-.4-2,0-3.9.2-4.6-.9-5.2-2,0-3.1.8h0Z"/>
      <path class="st1" d="M52.1,39.3s3.5.4,4.5,3.9c1.7-1.1,4.2-2.6,4.2-2.6,0,0-1.1,1.3-4.1,3.4-.9.7-1.1,1.6,0,3.5s1.6,2.7,1.6,2.7l14.7-12.5s-.5-1.8-1.4-3-.4-2.5-.4-2.5c0,0-1.3.6-2.9,2.4s-2.4.8-1.4,0,5.3-3.6,4.9-6.3-2.4-2-3.7-.9-6.5,7-15.9,11.8h0Z"/>
      <path class="st1" d="M55.2,44.3c.2-.7,1.2-1.5-1.1-3.4s-4.7-.5-4.5,1.4,3,2.5,4,5,1.4,5.2,1.4,5.2l.6-2.8,1.3,1.8s.5-.1.6-.3,0-.4-.5-1.5-2.5-4.1-1.8-5.4h0Z"/>
    </g>
  </g>
  <g>
    <path class="st3" d="M123.3,64.3h-5.5V23.2h5c3.4,0,6.7,2.5,6.7,9.7s-1.4,8.2-3.2,8.8c2,.5,4.5,3.7,4.5,10.4s-2.9,12.2-7.5,12.2ZM122.3,26.7h-.7v13.3h.8c1.5,0,3.2-1.7,3.2-6.6s-1.7-6.6-3.2-6.6ZM122.9,43.4h-1.2v17.3h1.3c2.2,0,3.9-2.9,3.9-8.6s-1.7-8.8-4-8.8Z"/>
    <path class="st3" d="M144,64.3l-5-19h-1.4v19h-3.9V23.2h5.9c5,0,7,4.8,7,11.2s-1.2,9-3.8,10.4l5.2,19.5h-4.1ZM139.1,26.7h-1.4v15.1h1.5c2.5,0,3.6-3,3.6-7.5s-1.1-7.6-3.7-7.6Z"/>
    <path class="st3" d="M154.4,23.1h3.7l5.5,41.2h-3.9l-1.4-11.4h-4.4l-1.4,11.4h-3.6l5.4-41.2ZM154.4,49.5h3.5l-.8-7.2c-.4-3.1-.6-7.2-.9-10.9h-.1c-.2,3.7-.4,7.7-.8,10.9l-.8,7.2Z"/>
    <path class="st3" d="M169.7,64.5c-1.9,0-3.4-.6-4.5-1.4l-.3-4c1.2,1,2.6,1.8,4.1,1.8s3.2-1.4,3.2-4.1c0-7.6-7.1-18-7.1-26.4s2.6-7.3,6.3-7.3,2.7.5,3.5,1l-.7,3.4c-.5-.5-1.5-.8-2.4-.8-1.6,0-2.8,1.4-2.8,4,0,6.6,7.2,17.7,7.2,26.4s-2.8,7.6-6.4,7.6Z"/>
    <path class="st3" d="M178.9,64.3V23.2h3.9v41.1h-3.9Z"/>
    <path class="st3" d="M186.6,64.3V23.2h3.9v37.6h7.7v3.5h-11.6Z"/>
  </g>
  <polygon class="st1" points="123.6 0 125.7 5.9 132 6.1 127.1 10 128.8 16.1 123.6 12.5 118.4 16.1 120.1 10 115.1 6.1 121.4 5.9 123.6 0"/>
  <polygon class="st1" points="145.6 0 147.8 5.9 154.1 6.1 149.1 10 150.9 16.1 145.6 12.5 140.4 16.1 142.2 10 137.2 6.1 143.5 5.9 145.6 0"/>
  <polygon class="st1" points="167.7 0 169.9 5.9 176.2 6.1 171.2 10 172.9 16.1 167.7 12.5 162.5 16.1 164.2 10 159.3 6.1 165.6 5.9 167.7 0"/>
  <polygon class="st1" points="189.8 0 191.9 5.9 198.2 6.1 193.3 10 195 16.1 189.8 12.5 184.6 16.1 186.3 10 181.3 6.1 187.6 5.9 189.8 0"/>
</svg>